<?xml version="1.0" encoding="UTF-8"?>
<svg width="256px" height="256px" viewBox="0 0 256 256" version="1.1" xmlns="http://www.w3.org/2000/svg" xmlns:xlink="http://www.w3.org/1999/xlink">
    <!-- Generator: Sketch 54.1 (76490) - https://sketchapp.com -->
    <title>CamifSmall</title>
    <desc>Created with Sketch.</desc>
    <g id="CamifSmall" stroke="none" stroke-width="1" fill="none" fill-rule="evenodd">
        <path d="M108.47781,125.760719 C107.933823,123.810762 107.645785,121.445187 107.58186,118.632107 C107.549856,115.819027 106.077832,112.878064 103.165788,109.745361 C100.285832,106.612658 98.0777958,104.886496 96.5416801,104.56679 C95.0055645,104.247084 92.9896366,104.023373 90.4936467,103.959431 C87.9976567,103.89549 85.2776376,104.56679 82.3335896,106.037271 C79.3895416,107.507752 77.053489,109.809386 75.3255151,112.942089 C74.2694616,116.842086 74.0135118,119.431372 74.4934907,120.710029 C75.0054737,121.956716 76.0615271,122.596045 77.6615677,122.596045 C79.2616083,122.596045 80.3495826,122.308393 80.9255739,121.764893 C81.5015652,121.221476 81.8536108,119.814936 82.0455523,117.577243 C82.6855519,114.828104 84.4135257,113.101942 87.1335447,112.302676 C89.7575513,111.279784 92.637591,111.311671 95.8055848,112.366618 L97.4695503,113.325653 C99.5175656,115.019928 100.925581,117.481331 101.661593,120.709946 C102.397605,123.938561 101.885622,124.801684 100.093557,123.299232 C98.3014914,121.79678 96.7335383,120.997598 95.3575267,120.90177 C94.0135193,120.805858 92.7974451,120.837828 91.7734791,121.029652 C90.7495131,121.189422 88.5414771,121.63701 85.1814585,122.30831 C81.8214399,123.01158 78.5573504,126.783611 75.4213609,133.656459 C75.0373945,135.702327 75.0373945,137.524402 75.3573526,139.058824 C74.6533447,138.195701 73.5973746,137.875995 72.285288,138.771172 C69.2132233,140.817041 58.493168,142.798969 55.2291618,142.926851 C50.7491648,143.086621 49.1811284,140.785154 48.3170998,139.858006 C47.4211504,138.930942 47.9970583,135.414675 49.2451367,132.889247 C50.4611275,130.363903 52.4132137,128.477804 55.1011453,127.199146 C57.7572393,125.920488 60.5411833,125.153277 63.3892189,124.897512 C66.045313,125.345101 66.0132255,125.888518 66.3012628,127.454911 C66.5893001,129.021304 67.1332872,130.012309 67.8692992,130.427844 C68.6053113,130.843378 69.5653523,130.172079 70.7492556,128.445916 C71.9333257,126.687783 72.6052461,124.897596 72.8292751,123.01158 C73.0213,121.157535 70.6532432,118.504224 68.6372321,117.545273 L64.9891762,116.394497 L60.989158,116.586321 C57.8851726,117.609214 51.7091225,119.015837 48.5410455,121.860888 L44.764973,125.760885 C42.1729706,128.573965 42.2048914,130.396123 40.3809051,136.118112 C39.8369179,138.771422 39.4528682,141.808213 42.3329079,145.580245 C43.6449112,147.306407 45.4688975,146.954814 49.5970156,148.297413 C53.6930462,149.640012 65.0531011,148.233472 66.941179,148.297413 C70.0132436,147.626114 74.5892531,146.411397 75.8692522,143.885969 C76.2212978,143.182699 76.3492311,142.287606 76.2532186,141.456453 C76.5411726,141.935929 76.861214,142.383517 77.2452638,142.799052 C79.1972667,144.876891 81.5653234,146.283431 84.3493507,146.986701 C87.133378,147.689971 89.9174053,147.881712 92.7334368,147.530118 C95.5494682,147.210412 97.6614918,146.666995 99.1335159,145.899867 C100.60554,145.132739 101.693597,144.557269 102.429526,144.10968 C103.165538,143.662092 103.869546,143.40641 104.54155,143.342469 C105.213553,143.278528 105.693532,143.534293 105.98157,144.07771 C106.269524,144.621127 106.781507,144.81295 107.517519,144.589156 C108.253531,144.365362 108.733509,141.648194 108.957538,136.469622 C109.181567,131.29105 109.021547,127.710759 108.47756,125.760802 L108.47781,125.760719 Z M98.9737452,138.291696 C98.205729,139.250731 96.7657091,139.858089 94.6536855,140.113854 C92.541662,140.369619 90.6856715,140.465531 89.0856309,140.465531 C87.4855903,140.465531 86.2695995,140.209766 85.4696625,139.73029 C84.6697256,139.218844 84.2216675,138.259809 84.1256551,136.789328 C84.0296426,135.318847 84.2536717,134.040189 84.7656547,132.953355 C85.2776376,131.83455 86.6857367,131.09931 88.9256935,130.715663 C91.1976545,130.332099 93.1177366,130.204216 94.7177772,130.268074 C96.3178178,130.363986 97.6298211,130.843462 98.6857912,131.706585 C99.7097572,132.569708 100.22174,133.624654 100.189819,134.903229 C100.157899,136.181803 99.7417613,137.300691 98.9738285,138.291696 L98.9737452,138.291696 Z M168.38232,159.965101 C169.470377,159.837219 170.014281,158.49462 170.014281,155.937305 C167.038229,146.954648 164.894284,141.200605 163.614202,138.643373 C161.982241,131.003315 161.310154,125.568978 161.566187,122.404222 C161.82222,119.239465 160.926187,117.481331 158.846168,117.129655 C156.766148,116.777978 155.550157,116.969885 155.198112,117.641101 C154.846066,118.312401 153.726088,119.942735 151.870097,122.532021 C150.014107,125.121307 148.638095,126.943464 147.710058,128.030298 C146.782022,129.117216 145.694047,130.715496 144.414048,132.857277 C143.134049,134.999057 142.398037,136.69325 142.174008,137.971907 C141.949979,139.250565 141.309979,139.889977 140.253926,139.889977 C139.197872,139.889977 138.301923,138.83503 137.629919,136.72522 C136.957916,134.61541 136.445849,132.058095 136.09397,129.021304 C134.685955,124.737743 133.469964,121.860805 132.478002,120.390323 C131.485957,118.887871 130.110029,118.248626 128.413975,118.472254 C126.717922,118.695881 125.629948,119.207494 125.213978,120.070617 L123.933978,123.267261 C120.957926,128.381892 119.357969,131.578536 119.13394,132.857277 C118.909911,134.136018 118.589953,134.679435 118.173899,134.45564 C117.757928,134.263817 117.30987,132.633482 116.8939,129.660633 C116.029871,125.409125 114.973818,123.267261 113.693902,123.267261 C110.71785,124.098414 109.8219,126.208224 111.069895,129.53275 C112.31789,132.857277 112.829873,135.958009 112.669936,138.80306 C112.477911,141.64811 113.917931,144.269367 116.893983,146.602888 C119.870035,148.968379 122.01398,146.506976 123.294062,139.250482 C124.190012,134.327591 125.150053,131.035036 126.206106,129.468726 C127.26216,127.902416 128.414142,128.381809 129.694141,130.939207 C132.094119,135.062915 133.374201,138.898971 133.534139,142.447209 C135.454221,147.338128 137.790107,149.799615 140.574217,149.831502 C143.358328,149.86339 145.246239,148.744585 146.238284,146.506976 C147.26225,144.269283 149.854253,138.834947 154.078383,130.235937 C155.998465,126.911411 157.374394,126.783528 158.206418,129.88426 C159.038443,132.984993 159.390488,135.414509 159.294476,137.236667 C159.198463,139.026854 159.870467,143.02268 161.374495,149.224144 C162.878523,155.393721 164.126518,158.782272 165.182572,159.325606 C166.238625,159.86894 167.294595,160.092817 168.38257,159.964935 L168.38232,159.965101 Z M173.918287,142.351464 C173.598245,140.625301 173.53432,139.090878 173.758349,137.716226 C173.950374,136.341656 173.950374,133.7204 173.758349,129.788515 C173.566325,125.85663 173.342379,123.075521 173.11835,121.445187 C172.894321,119.814852 172.446346,118.983783 171.742338,118.983783 C171.03833,118.983783 170.334322,119.463259 169.630315,120.390323 C168.926307,121.349358 168.478332,122.532021 168.254303,123.970615 C168.062278,125.377155 167.966349,127.998411 167.966349,131.770443 C167.966349,135.542474 168.222382,138.611319 168.702361,140.94484 C169.18234,143.278445 169.630398,145.324313 170.046369,147.050559 C170.462339,148.776805 171.134426,149.671816 172.06238,149.70387 C172.990417,149.73584 173.598329,148.968629 173.91837,147.338378 C174.238412,145.740014 174.238412,144.077793 173.91837,142.35163 L173.918287,142.351464 Z M193.182532,151.621856 C194.014557,150.758733 193.982469,145.867814 193.118524,136.949098 L193.118524,131.354991 C193.118524,128.765706 193.982553,127.199312 195.710526,126.623925 L201.310502,126.623925 C204.574508,127.742729 207.742502,127.58296 210.814566,126.20839 L211.230537,124.482227 C211.774524,121.573236 210.910495,119.68722 208.638534,118.888121 C206.334486,117.449611 204.606512,116.746424 203.45453,116.746424 C198.846516,116.139066 196.062489,116.107095 195.070443,116.586654 C194.078398,117.066213 193.150361,117.194012 192.254412,117.002189 C191.358463,116.810365 190.910405,115.371938 190.910405,112.750681 C190.910405,109.937601 191.294371,108.147497 191.998462,107.444227 C192.702553,106.740957 194.590465,105.845863 197.662529,104.727059 C200.70259,103.640142 204.062608,105.334417 207.742668,109.841689 C210.174733,111.184288 212.350682,111.056406 214.206672,109.394101 C215.454667,107.092467 216.030742,105.462216 215.998738,104.43924 C215.966734,103.416264 215.358738,102.233518 214.206672,100.954861 C213.05469,99.6442325 210.750641,98.4934573 207.29461,97.5024518 C203.838579,96.5114464 200.830606,96 198.238604,96 C195.646601,96 192.990507,96.2237942 190.302576,96.6712994 C187.582557,97.1188879 184.926463,99.196644 182.33446,102.840877 L181.886402,106.293285 C183.422351,116.011183 182.878447,120.74225 180.254441,120.486485 C177.630434,120.23072 176.286427,121.125814 176.286427,123.139795 C176.254423,125.153693 176.766406,126.432351 177.822376,127.007739 C178.878429,127.551156 180.094337,127.966773 181.470432,128.254426 C182.846443,128.51019 183.390514,129.565054 183.166485,131.323271 C183.614543,136.885489 183.838488,140.913286 183.838488,143.342719 C183.806484,145.772235 184.478488,148.393491 185.758571,151.174601 C186.622599,152.325376 187.870594,152.900764 189.502556,152.900764 C191.134517,152.900764 192.350591,152.485229 193.182616,151.622106 L193.182532,151.621856 Z M168.766369,114.124918 C169.054323,114.828188 169.950439,115.371605 171.390376,115.723281 C172.830396,116.106845 173.630416,115.755252 173.790354,114.668335 C173.91837,113.613388 174.110395,112.33473 174.302337,110.832362 C174.494278,109.329993 174.014383,108.498757 172.798308,108.338988 C171.582234,108.179218 170.398331,108.275047 169.214261,108.594753 C168.030191,108.882405 167.582299,109.713557 167.902257,111.056156 C168.158291,112.398755 168.478249,113.421648 168.766286,114.125001 L168.766369,114.124918 Z" id="Shape" fill="#47C8C7" fill-rule="nonzero"></path>
    </g>
</svg>